<svg xmlns="http://www.w3.org/2000/svg" viewBox="0 0 640 480">
  <rect width="640" height="480" fill="#de2910"/>
  <g fill="#ffde00">
    <polygon points="0,-1 0.225,-0.309 0.951,-0.309 0.363,0.118 0.588,0.809 0,0.382 -0.588,0.809 -0.363,0.118 -0.951,-0.309 -0.225,-0.309" transform="translate(107, 120) scale(35)"/>
    <polygon points="0,-1 0.225,-0.309 0.951,-0.309 0.363,0.118 0.588,0.809 0,0.382 -0.588,0.809 -0.363,0.118 -0.951,-0.309 -0.225,-0.309" transform="translate(150, 80) scale(13)"/>
    <polygon points="0,-1 0.225,-0.309 0.951,-0.309 0.363,0.118 0.588,0.809 0,0.382 -0.588,0.809 -0.363,0.118 -0.951,-0.309 -0.225,-0.309" transform="translate(175, 105) scale(13)"/>
    <polygon points="0,-1 0.225,-0.309 0.951,-0.309 0.363,0.118 0.588,0.809 0,0.382 -0.588,0.809 -0.363,0.118 -0.951,-0.309 -0.225,-0.309" transform="translate(175, 140) scale(13)"/>
    <polygon points="0,-1 0.225,-0.309 0.951,-0.309 0.363,0.118 0.588,0.809 0,0.382 -0.588,0.809 -0.363,0.118 -0.951,-0.309 -0.225,-0.309" transform="translate(150, 165) scale(13)"/>
  </g>
</svg>
